<mxfile host="app.diagrams.net" agent="Mozilla/5.0 (Windows NT 10.0; Win64; x64) AppleWebKit/537.36 (KHTML, like Gecko) Chrome/132.0.0.0 Safari/537.36 OPR/117.0.0.0 (Edition Yx GX 03)" version="25.0.3">
  <diagram name="Страница — 1" id="YwxpJquxlYEGNgDVk19V">
    <mxGraphModel dx="2018" dy="1074" grid="1" gridSize="10" guides="1" tooltips="1" connect="1" arrows="1" fold="1" page="1" pageScale="1" pageWidth="1169" pageHeight="827" math="0" shadow="0">
      <root>
        <mxCell id="0" />
        <mxCell id="1" parent="0" />
        <mxCell id="KjZHPgykI6vtlndFNfHP-1" value="Пользователь" style="text;html=1;align=center;verticalAlign=middle;whiteSpace=wrap;rounded=0;" vertex="1" parent="1">
          <mxGeometry x="170" y="80" width="60" height="30" as="geometry" />
        </mxCell>
        <mxCell id="KjZHPgykI6vtlndFNfHP-2" value="Система" style="text;html=1;align=center;verticalAlign=middle;whiteSpace=wrap;rounded=0;" vertex="1" parent="1">
          <mxGeometry x="595" y="80" width="60" height="30" as="geometry" />
        </mxCell>
        <mxCell id="KjZHPgykI6vtlndFNfHP-5" style="edgeStyle=orthogonalEdgeStyle;rounded=0;orthogonalLoop=1;jettySize=auto;html=1;" edge="1" parent="1" source="KjZHPgykI6vtlndFNfHP-3" target="KjZHPgykI6vtlndFNfHP-4">
          <mxGeometry relative="1" as="geometry" />
        </mxCell>
        <mxCell id="KjZHPgykI6vtlndFNfHP-3" value="" style="ellipse;whiteSpace=wrap;html=1;aspect=fixed;fillColor=#0A0A0A;perimeterSpacing=1;strokeColor=default;shadow=0;" vertex="1" parent="1">
          <mxGeometry x="180" y="110" width="40" height="40" as="geometry" />
        </mxCell>
        <mxCell id="KjZHPgykI6vtlndFNfHP-8" style="edgeStyle=orthogonalEdgeStyle;rounded=0;orthogonalLoop=1;jettySize=auto;html=1;entryX=0;entryY=0.5;entryDx=0;entryDy=0;" edge="1" parent="1" source="KjZHPgykI6vtlndFNfHP-4" target="KjZHPgykI6vtlndFNfHP-7">
          <mxGeometry relative="1" as="geometry" />
        </mxCell>
        <mxCell id="KjZHPgykI6vtlndFNfHP-4" value="Выбор игры" style="rounded=1;whiteSpace=wrap;html=1;" vertex="1" parent="1">
          <mxGeometry x="150" y="180" width="100" height="40" as="geometry" />
        </mxCell>
        <mxCell id="KjZHPgykI6vtlndFNfHP-10" style="edgeStyle=orthogonalEdgeStyle;rounded=0;orthogonalLoop=1;jettySize=auto;html=1;entryX=0.5;entryY=0;entryDx=0;entryDy=0;" edge="1" parent="1" source="KjZHPgykI6vtlndFNfHP-7" target="KjZHPgykI6vtlndFNfHP-9">
          <mxGeometry relative="1" as="geometry" />
        </mxCell>
        <mxCell id="KjZHPgykI6vtlndFNfHP-7" value="Проверка авторизации" style="rounded=1;whiteSpace=wrap;html=1;" vertex="1" parent="1">
          <mxGeometry x="575" y="180" width="100" height="40" as="geometry" />
        </mxCell>
        <mxCell id="KjZHPgykI6vtlndFNfHP-12" style="edgeStyle=orthogonalEdgeStyle;rounded=0;orthogonalLoop=1;jettySize=auto;html=1;exitX=1;exitY=0.5;exitDx=0;exitDy=0;" edge="1" parent="1" source="KjZHPgykI6vtlndFNfHP-9">
          <mxGeometry relative="1" as="geometry">
            <mxPoint x="875" y="360" as="targetPoint" />
            <mxPoint x="965" y="305" as="sourcePoint" />
          </mxGeometry>
        </mxCell>
        <mxCell id="KjZHPgykI6vtlndFNfHP-38" value="да" style="edgeLabel;html=1;align=center;verticalAlign=middle;resizable=0;points=[];" vertex="1" connectable="0" parent="KjZHPgykI6vtlndFNfHP-12">
          <mxGeometry x="-0.2607" relative="1" as="geometry">
            <mxPoint as="offset" />
          </mxGeometry>
        </mxCell>
        <mxCell id="KjZHPgykI6vtlndFNfHP-27" style="edgeStyle=orthogonalEdgeStyle;rounded=0;orthogonalLoop=1;jettySize=auto;html=1;exitX=0;exitY=0.5;exitDx=0;exitDy=0;" edge="1" parent="1" source="KjZHPgykI6vtlndFNfHP-9">
          <mxGeometry relative="1" as="geometry">
            <mxPoint x="230" y="305" as="targetPoint" />
          </mxGeometry>
        </mxCell>
        <mxCell id="KjZHPgykI6vtlndFNfHP-37" value="нет" style="edgeLabel;html=1;align=center;verticalAlign=middle;resizable=0;points=[];" vertex="1" connectable="0" parent="KjZHPgykI6vtlndFNfHP-27">
          <mxGeometry x="-0.4396" y="2" relative="1" as="geometry">
            <mxPoint as="offset" />
          </mxGeometry>
        </mxCell>
        <mxCell id="KjZHPgykI6vtlndFNfHP-9" value="авторизован?" style="rhombus;whiteSpace=wrap;html=1;" vertex="1" parent="1">
          <mxGeometry x="570" y="280" width="110" height="50" as="geometry" />
        </mxCell>
        <mxCell id="KjZHPgykI6vtlndFNfHP-11" value="" style="endArrow=none;html=1;rounded=0;" edge="1" parent="1">
          <mxGeometry width="50" height="50" relative="1" as="geometry">
            <mxPoint x="320" y="1050" as="sourcePoint" />
            <mxPoint x="320" as="targetPoint" />
          </mxGeometry>
        </mxCell>
        <mxCell id="KjZHPgykI6vtlndFNfHP-16" style="edgeStyle=orthogonalEdgeStyle;rounded=0;orthogonalLoop=1;jettySize=auto;html=1;entryX=0.5;entryY=0;entryDx=0;entryDy=0;" edge="1" parent="1" source="KjZHPgykI6vtlndFNfHP-13" target="KjZHPgykI6vtlndFNfHP-15">
          <mxGeometry relative="1" as="geometry" />
        </mxCell>
        <mxCell id="KjZHPgykI6vtlndFNfHP-13" value="Проверка доступа к игре" style="rounded=1;whiteSpace=wrap;html=1;" vertex="1" parent="1">
          <mxGeometry x="825" y="365" width="100" height="40" as="geometry" />
        </mxCell>
        <mxCell id="KjZHPgykI6vtlndFNfHP-19" style="edgeStyle=orthogonalEdgeStyle;rounded=0;orthogonalLoop=1;jettySize=auto;html=1;exitX=0;exitY=0.5;exitDx=0;exitDy=0;entryX=0.5;entryY=0;entryDx=0;entryDy=0;" edge="1" parent="1" source="KjZHPgykI6vtlndFNfHP-15" target="KjZHPgykI6vtlndFNfHP-18">
          <mxGeometry relative="1" as="geometry" />
        </mxCell>
        <mxCell id="KjZHPgykI6vtlndFNfHP-44" value="да" style="edgeLabel;html=1;align=center;verticalAlign=middle;resizable=0;points=[];" vertex="1" connectable="0" parent="KjZHPgykI6vtlndFNfHP-19">
          <mxGeometry x="-0.2857" y="-1" relative="1" as="geometry">
            <mxPoint y="-1" as="offset" />
          </mxGeometry>
        </mxCell>
        <mxCell id="KjZHPgykI6vtlndFNfHP-48" style="edgeStyle=orthogonalEdgeStyle;rounded=0;orthogonalLoop=1;jettySize=auto;html=1;exitX=1;exitY=0.5;exitDx=0;exitDy=0;entryX=0.5;entryY=0;entryDx=0;entryDy=0;" edge="1" parent="1" source="KjZHPgykI6vtlndFNfHP-15" target="KjZHPgykI6vtlndFNfHP-46">
          <mxGeometry relative="1" as="geometry" />
        </mxCell>
        <mxCell id="KjZHPgykI6vtlndFNfHP-15" value="игра доступна?" style="rhombus;whiteSpace=wrap;html=1;" vertex="1" parent="1">
          <mxGeometry x="820" y="450" width="110" height="50" as="geometry" />
        </mxCell>
        <mxCell id="KjZHPgykI6vtlndFNfHP-22" style="edgeStyle=orthogonalEdgeStyle;rounded=0;orthogonalLoop=1;jettySize=auto;html=1;entryX=0.5;entryY=0;entryDx=0;entryDy=0;" edge="1" parent="1" source="KjZHPgykI6vtlndFNfHP-18" target="KjZHPgykI6vtlndFNfHP-21">
          <mxGeometry relative="1" as="geometry" />
        </mxCell>
        <mxCell id="KjZHPgykI6vtlndFNfHP-18" value="Загрузить игру" style="rounded=1;whiteSpace=wrap;html=1;" vertex="1" parent="1">
          <mxGeometry x="745" y="520" width="100" height="40" as="geometry" />
        </mxCell>
        <mxCell id="KjZHPgykI6vtlndFNfHP-25" style="edgeStyle=orthogonalEdgeStyle;rounded=0;orthogonalLoop=1;jettySize=auto;html=1;exitX=0;exitY=0.5;exitDx=0;exitDy=0;entryX=0.5;entryY=0;entryDx=0;entryDy=0;" edge="1" parent="1" source="KjZHPgykI6vtlndFNfHP-21" target="KjZHPgykI6vtlndFNfHP-23">
          <mxGeometry relative="1" as="geometry">
            <mxPoint x="715" y="670" as="targetPoint" />
          </mxGeometry>
        </mxCell>
        <mxCell id="KjZHPgykI6vtlndFNfHP-53" style="edgeStyle=orthogonalEdgeStyle;rounded=0;orthogonalLoop=1;jettySize=auto;html=1;entryX=0.5;entryY=0;entryDx=0;entryDy=0;" edge="1" parent="1" source="KjZHPgykI6vtlndFNfHP-21" target="KjZHPgykI6vtlndFNfHP-51">
          <mxGeometry relative="1" as="geometry" />
        </mxCell>
        <mxCell id="KjZHPgykI6vtlndFNfHP-21" value="загрузка успешна?" style="rhombus;whiteSpace=wrap;html=1;" vertex="1" parent="1">
          <mxGeometry x="731.25" y="600" width="127.5" height="70" as="geometry" />
        </mxCell>
        <mxCell id="KjZHPgykI6vtlndFNfHP-54" style="edgeStyle=orthogonalEdgeStyle;rounded=0;orthogonalLoop=1;jettySize=auto;html=1;exitX=1;exitY=0.5;exitDx=0;exitDy=0;" edge="1" parent="1" source="KjZHPgykI6vtlndFNfHP-23">
          <mxGeometry relative="1" as="geometry">
            <mxPoint x="410" y="680" as="targetPoint" />
          </mxGeometry>
        </mxCell>
        <mxCell id="KjZHPgykI6vtlndFNfHP-23" value="играть в игру" style="rounded=1;whiteSpace=wrap;html=1;" vertex="1" parent="1">
          <mxGeometry x="170" y="660" width="100" height="40" as="geometry" />
        </mxCell>
        <mxCell id="KjZHPgykI6vtlndFNfHP-34" style="edgeStyle=orthogonalEdgeStyle;rounded=0;orthogonalLoop=1;jettySize=auto;html=1;exitX=0.5;exitY=1;exitDx=0;exitDy=0;entryX=0.5;entryY=0;entryDx=0;entryDy=0;" edge="1" parent="1" source="KjZHPgykI6vtlndFNfHP-32" target="KjZHPgykI6vtlndFNfHP-33">
          <mxGeometry relative="1" as="geometry" />
        </mxCell>
        <mxCell id="KjZHPgykI6vtlndFNfHP-32" value="авторизоваться" style="rounded=1;whiteSpace=wrap;html=1;" vertex="1" parent="1">
          <mxGeometry x="150" y="285" width="100" height="40" as="geometry" />
        </mxCell>
        <mxCell id="KjZHPgykI6vtlndFNfHP-35" style="edgeStyle=orthogonalEdgeStyle;rounded=0;orthogonalLoop=1;jettySize=auto;html=1;exitX=1;exitY=0.5;exitDx=0;exitDy=0;entryX=0;entryY=0.5;entryDx=0;entryDy=0;" edge="1" parent="1" source="KjZHPgykI6vtlndFNfHP-33" target="KjZHPgykI6vtlndFNfHP-13">
          <mxGeometry relative="1" as="geometry" />
        </mxCell>
        <mxCell id="KjZHPgykI6vtlndFNfHP-39" value="да" style="edgeLabel;html=1;align=center;verticalAlign=middle;resizable=0;points=[];" vertex="1" connectable="0" parent="KjZHPgykI6vtlndFNfHP-35">
          <mxGeometry x="-0.5488" y="-3" relative="1" as="geometry">
            <mxPoint as="offset" />
          </mxGeometry>
        </mxCell>
        <mxCell id="KjZHPgykI6vtlndFNfHP-40" style="edgeStyle=orthogonalEdgeStyle;rounded=0;orthogonalLoop=1;jettySize=auto;html=1;" edge="1" parent="1" source="KjZHPgykI6vtlndFNfHP-33">
          <mxGeometry relative="1" as="geometry">
            <mxPoint x="200" y="460" as="targetPoint" />
          </mxGeometry>
        </mxCell>
        <mxCell id="KjZHPgykI6vtlndFNfHP-33" value="авторизация успешна?" style="rhombus;whiteSpace=wrap;html=1;" vertex="1" parent="1">
          <mxGeometry x="145" y="360" width="110" height="50" as="geometry" />
        </mxCell>
        <mxCell id="KjZHPgykI6vtlndFNfHP-43" style="edgeStyle=orthogonalEdgeStyle;rounded=0;orthogonalLoop=1;jettySize=auto;html=1;exitX=0.5;exitY=1;exitDx=0;exitDy=0;" edge="1" parent="1" source="KjZHPgykI6vtlndFNfHP-41" target="KjZHPgykI6vtlndFNfHP-42">
          <mxGeometry relative="1" as="geometry" />
        </mxCell>
        <mxCell id="KjZHPgykI6vtlndFNfHP-41" value="отображение сообщения об ошибке авторизации" style="rounded=1;whiteSpace=wrap;html=1;" vertex="1" parent="1">
          <mxGeometry x="140" y="460" width="120" height="60" as="geometry" />
        </mxCell>
        <mxCell id="KjZHPgykI6vtlndFNfHP-42" value="" style="ellipse;html=1;shape=endState;fillColor=#000000;strokeColor=#0D0D0D;" vertex="1" parent="1">
          <mxGeometry x="185" y="540" width="30" height="30" as="geometry" />
        </mxCell>
        <mxCell id="KjZHPgykI6vtlndFNfHP-45" style="edgeStyle=orthogonalEdgeStyle;rounded=0;orthogonalLoop=1;jettySize=auto;html=1;exitX=0.5;exitY=1;exitDx=0;exitDy=0;" edge="1" parent="1" source="KjZHPgykI6vtlndFNfHP-46" target="KjZHPgykI6vtlndFNfHP-47">
          <mxGeometry relative="1" as="geometry" />
        </mxCell>
        <mxCell id="KjZHPgykI6vtlndFNfHP-46" value="отображение сообщения об ошибке доступа к игре" style="rounded=1;whiteSpace=wrap;html=1;" vertex="1" parent="1">
          <mxGeometry x="890" y="520" width="120" height="60" as="geometry" />
        </mxCell>
        <mxCell id="KjZHPgykI6vtlndFNfHP-47" value="" style="ellipse;html=1;shape=endState;fillColor=#000000;strokeColor=#0D0D0D;" vertex="1" parent="1">
          <mxGeometry x="935" y="600" width="30" height="30" as="geometry" />
        </mxCell>
        <mxCell id="KjZHPgykI6vtlndFNfHP-49" value="нет" style="text;html=1;align=center;verticalAlign=middle;resizable=0;points=[];autosize=1;strokeColor=none;fillColor=none;" vertex="1" parent="1">
          <mxGeometry x="940" y="458" width="40" height="30" as="geometry" />
        </mxCell>
        <mxCell id="KjZHPgykI6vtlndFNfHP-50" style="edgeStyle=orthogonalEdgeStyle;rounded=0;orthogonalLoop=1;jettySize=auto;html=1;exitX=0.5;exitY=1;exitDx=0;exitDy=0;" edge="1" parent="1" source="KjZHPgykI6vtlndFNfHP-51" target="KjZHPgykI6vtlndFNfHP-52">
          <mxGeometry relative="1" as="geometry" />
        </mxCell>
        <mxCell id="KjZHPgykI6vtlndFNfHP-51" value="отображение сообщения об ошибке загрузки" style="rounded=1;whiteSpace=wrap;html=1;" vertex="1" parent="1">
          <mxGeometry x="735" y="710" width="120" height="60" as="geometry" />
        </mxCell>
        <mxCell id="KjZHPgykI6vtlndFNfHP-52" value="" style="ellipse;html=1;shape=endState;fillColor=#000000;strokeColor=#0D0D0D;" vertex="1" parent="1">
          <mxGeometry x="780" y="790" width="30" height="30" as="geometry" />
        </mxCell>
        <mxCell id="KjZHPgykI6vtlndFNfHP-57" style="edgeStyle=orthogonalEdgeStyle;rounded=0;orthogonalLoop=1;jettySize=auto;html=1;exitX=1;exitY=0.5;exitDx=0;exitDy=0;entryX=0.5;entryY=0;entryDx=0;entryDy=0;" edge="1" parent="1" source="KjZHPgykI6vtlndFNfHP-55" target="KjZHPgykI6vtlndFNfHP-56">
          <mxGeometry relative="1" as="geometry" />
        </mxCell>
        <mxCell id="KjZHPgykI6vtlndFNfHP-59" style="edgeStyle=orthogonalEdgeStyle;rounded=0;orthogonalLoop=1;jettySize=auto;html=1;exitX=0.5;exitY=1;exitDx=0;exitDy=0;" edge="1" parent="1" source="KjZHPgykI6vtlndFNfHP-55">
          <mxGeometry relative="1" as="geometry">
            <mxPoint x="474" y="770" as="targetPoint" />
          </mxGeometry>
        </mxCell>
        <mxCell id="KjZHPgykI6vtlndFNfHP-60" value="нет" style="edgeLabel;html=1;align=center;verticalAlign=middle;resizable=0;points=[];" vertex="1" connectable="0" parent="KjZHPgykI6vtlndFNfHP-59">
          <mxGeometry x="-0.5619" y="1" relative="1" as="geometry">
            <mxPoint as="offset" />
          </mxGeometry>
        </mxCell>
        <mxCell id="KjZHPgykI6vtlndFNfHP-55" value="сохранить прогресс?" style="rhombus;whiteSpace=wrap;html=1;" vertex="1" parent="1">
          <mxGeometry x="410" y="645" width="127.5" height="70" as="geometry" />
        </mxCell>
        <mxCell id="KjZHPgykI6vtlndFNfHP-63" style="edgeStyle=orthogonalEdgeStyle;rounded=0;orthogonalLoop=1;jettySize=auto;html=1;exitX=0.5;exitY=1;exitDx=0;exitDy=0;entryX=0.5;entryY=0;entryDx=0;entryDy=0;" edge="1" parent="1" source="KjZHPgykI6vtlndFNfHP-56" target="KjZHPgykI6vtlndFNfHP-62">
          <mxGeometry relative="1" as="geometry" />
        </mxCell>
        <mxCell id="KjZHPgykI6vtlndFNfHP-56" value="сохранить прогресс" style="rounded=1;whiteSpace=wrap;html=1;" vertex="1" parent="1">
          <mxGeometry x="535" y="700" width="100" height="40" as="geometry" />
        </mxCell>
        <mxCell id="KjZHPgykI6vtlndFNfHP-58" value="да" style="text;html=1;align=center;verticalAlign=middle;resizable=0;points=[];autosize=1;strokeColor=none;fillColor=none;" vertex="1" parent="1">
          <mxGeometry x="570" y="658" width="40" height="30" as="geometry" />
        </mxCell>
        <mxCell id="KjZHPgykI6vtlndFNfHP-61" value="" style="ellipse;html=1;shape=endState;fillColor=#000000;strokeColor=#0D0D0D;" vertex="1" parent="1">
          <mxGeometry x="458.75" y="770" width="30" height="30" as="geometry" />
        </mxCell>
        <mxCell id="KjZHPgykI6vtlndFNfHP-65" style="edgeStyle=orthogonalEdgeStyle;rounded=0;orthogonalLoop=1;jettySize=auto;html=1;exitX=0;exitY=0.5;exitDx=0;exitDy=0;entryX=0.5;entryY=0;entryDx=0;entryDy=0;" edge="1" parent="1" source="KjZHPgykI6vtlndFNfHP-62" target="KjZHPgykI6vtlndFNfHP-64">
          <mxGeometry relative="1" as="geometry" />
        </mxCell>
        <mxCell id="KjZHPgykI6vtlndFNfHP-66" value="да" style="edgeLabel;html=1;align=center;verticalAlign=middle;resizable=0;points=[];" vertex="1" connectable="0" parent="KjZHPgykI6vtlndFNfHP-65">
          <mxGeometry x="-0.0085" y="3" relative="1" as="geometry">
            <mxPoint as="offset" />
          </mxGeometry>
        </mxCell>
        <mxCell id="KjZHPgykI6vtlndFNfHP-67" style="edgeStyle=orthogonalEdgeStyle;rounded=0;orthogonalLoop=1;jettySize=auto;html=1;exitX=1;exitY=0.5;exitDx=0;exitDy=0;" edge="1" parent="1" source="KjZHPgykI6vtlndFNfHP-62">
          <mxGeometry relative="1" as="geometry">
            <mxPoint x="680" y="870" as="targetPoint" />
          </mxGeometry>
        </mxCell>
        <mxCell id="KjZHPgykI6vtlndFNfHP-62" value="сохранение успешно?" style="rhombus;whiteSpace=wrap;html=1;" vertex="1" parent="1">
          <mxGeometry x="521" y="780" width="127.5" height="70" as="geometry" />
        </mxCell>
        <mxCell id="KjZHPgykI6vtlndFNfHP-64" value="" style="ellipse;html=1;shape=endState;fillColor=#000000;strokeColor=#0D0D0D;" vertex="1" parent="1">
          <mxGeometry x="480" y="860" width="30" height="30" as="geometry" />
        </mxCell>
        <mxCell id="KjZHPgykI6vtlndFNfHP-68" style="edgeStyle=orthogonalEdgeStyle;rounded=0;orthogonalLoop=1;jettySize=auto;html=1;exitX=0.5;exitY=1;exitDx=0;exitDy=0;" edge="1" parent="1" source="KjZHPgykI6vtlndFNfHP-69" target="KjZHPgykI6vtlndFNfHP-70">
          <mxGeometry relative="1" as="geometry" />
        </mxCell>
        <mxCell id="KjZHPgykI6vtlndFNfHP-69" value="отображение сообщения об ошибке сохранения" style="rounded=1;whiteSpace=wrap;html=1;" vertex="1" parent="1">
          <mxGeometry x="615" y="870" width="120" height="60" as="geometry" />
        </mxCell>
        <mxCell id="KjZHPgykI6vtlndFNfHP-70" value="" style="ellipse;html=1;shape=endState;fillColor=#000000;strokeColor=#0D0D0D;" vertex="1" parent="1">
          <mxGeometry x="660" y="950" width="30" height="30" as="geometry" />
        </mxCell>
      </root>
    </mxGraphModel>
  </diagram>
</mxfile>
